# xmcd
#
# Track frame offsets: 
#        150
#        24348
#        43918
#        59135
#        72741
#        87825
#        103014
#        119074
#        133004
#        147743
#        161211
#        174605
#        190892
#
# Disc length: 2743 seconds
#
# Revision: 0
# Processed by: cddbd v1.5.2PL0 Copyright (c) Steve Scherf et al.
# Submitted via: ExactAudioCopy v0.99pb5
#
DISCID=d30ab50d
DTITLE=Konyali Muammer Yapar - Oyun Havalari
DYEAR=1900
DGENRE=
TTITLE0=Misket
TTITLE1=Gesi Baglari
TTITLE2=Cek Deveci
TTITLE3=Sen gül topla
TTITLE4=Findik dallari
TTITLE5=Pinarbasi
TTITLE6=Konyalim
TTITLE7=Yamadan Gel
TTITLE8=Amanin Elmali
TTITLE9=Yandi Gidiyom
TTITLE10=Aslan Mustafam
TTITLE11=Hocamin Evleri
TTITLE12=Fasulye
EXTD=
EXTT0=
EXTT1=
EXTT2=
EXTT3=
EXTT4=
EXTT5=
EXTT6=
EXTT7=
EXTT8=
EXTT9=
EXTT10=
EXTT11=
EXTT12=
PLAYORDER=
